<?xml version="1.0" encoding="UTF-8" standalone="no"?>
<!DOCTYPE svg PUBLIC "-//W3C//DTD SVG 1.1//EN" "http://www.w3.org/Graphics/SVG/1.1/DTD/svg11.dtd">
<svg width="100%" height="100%" viewBox="0 0 1920 1080" version="1.1" xmlns="http://www.w3.org/2000/svg" xmlns:xlink="http://www.w3.org/1999/xlink" xml:space="preserve" xmlns:serif="http://www.serif.com/" style="fill-rule:evenodd;clip-rule:evenodd;stroke-linecap:round;stroke-linejoin:round;stroke-miterlimit:1.5;">
    <rect x="0" y="0" width="1920" height="1080" style="fill:none;"/>
    <clipPath id="_clip1">
        <rect x="0" y="0" width="1920" height="1080"/>
    </clipPath>
    <g clip-path="url(#_clip1)">
        <g>
            <g id="tree.svg" transform="matrix(0.201032,0,0,0.297796,0,787.469)">
                <g transform="matrix(1,0,0,1,-839.5,-831)">
                    <g transform="matrix(1,0,0,1,-180.963,-32.773)">
                        <g>
                            <path d="M1282.26,1694.17L977.253,1694.17L977.253,1444.62L1010.53,1164.57L1004.98,1031.48L1013.3,953.838L885.751,865.109L747.112,859.564L589.063,931.656L478.151,942.747L350.603,906.701L311.784,862.336L278.511,831.836L347.831,845.7L425.469,890.064L516.97,890.064L594.608,878.973L644.519,865.109L694.429,829.063L605.7,790.244L450.424,776.38L394.968,773.607L297.92,723.697L278.511,687.651L289.602,640.513L333.967,651.605L336.739,698.742L370.013,712.606L425.469,726.47L500.334,729.243L572.426,732.015L675.019,748.652L694.429,776.38L763.748,732.015L683.338,687.651L625.109,648.832L616.791,590.603L580.537,538.136L495.012,473.291L455.969,435.327L530.834,468.601L612.539,501.866L647.291,565.648L663.928,634.968L727.702,671.014L760.976,693.196L772.067,626.65L733.248,512.965L727.702,460.282L684.608,385.417L647.291,332.734L569.653,268.96L605.7,268.96L666.701,282.824L688.883,329.961L716.611,349.371L902.388,582.285L874.66,488.01L813.659,368.78L813.659,266.187L816.431,224.596L891.297,144.185L880.205,224.596L855.25,296.688L846.932,374.326L874.66,421.463L894.069,463.055L910.706,526.829L955.071,579.512L1016.07,388.19L1079.85,282.824L1173.25,189.62L1208.65,193.879L1131.44,400.56L1115.89,449.191L1046.57,521.284L1096.51,645.628L1212.95,697.232L1254.53,743.107L1318.31,956.611L1279.49,1378.07L1282.26,1694.17Z" style="stroke:black;stroke-width:1px;"/>
                        </g>
                    </g>
                </g>
            </g>
            <g id="tree.svg1" serif:id="tree.svg" transform="matrix(0.201032,0,0,0.297796,1891.61,787.469)">
                <g transform="matrix(1,0,0,1,-839.5,-831)">
                    <g transform="matrix(1,0,0,1,-180.963,-32.773)">
                        <g>
                            <path d="M1282.26,1694.17L977.253,1694.17L977.253,1444.62L1010.53,1164.57L1004.98,1031.48L1013.3,953.838L885.751,865.109L747.112,859.564L589.063,931.656L478.151,942.747L350.603,906.701L311.784,862.336L278.511,831.836L347.831,845.7L425.469,890.064L516.97,890.064L594.608,878.973L644.519,865.109L694.429,829.063L605.7,790.244L450.424,776.38L394.968,773.607L297.92,723.697L278.511,687.651L289.602,640.513L333.967,651.605L336.739,698.742L370.013,712.606L425.469,726.47L500.334,729.243L572.426,732.015L675.019,748.652L694.429,776.38L763.748,732.015L683.338,687.651L625.109,648.832L616.791,590.603L580.537,538.136L495.012,473.291L455.969,435.327L530.834,468.601L612.539,501.866L647.291,565.648L663.928,634.968L727.702,671.014L760.976,693.196L772.067,626.65L733.248,512.965L727.702,460.282L684.608,385.417L647.291,332.734L569.653,268.96L605.7,268.96L666.701,282.824L688.883,329.961L716.611,349.371L902.388,582.285L874.66,488.01L813.659,368.78L813.659,266.187L816.431,224.596L891.297,144.185L880.205,224.596L855.25,296.688L846.932,374.326L874.66,421.463L894.069,463.055L910.706,526.829L955.071,579.512L1016.07,388.19L1079.85,282.824L1173.25,189.62L1208.65,193.879L1131.44,400.56L1115.89,449.191L1046.57,521.284L1096.51,645.628L1212.95,697.232L1254.53,743.107L1318.31,956.611L1279.49,1378.07L1282.26,1694.17Z" style="stroke:black;stroke-width:1px;"/>
                        </g>
                    </g>
                </g>
            </g>
            <g id="tree.svg2" serif:id="tree.svg" transform="matrix(0.201032,0,0,0.297796,1453.6,832.531)">
                <g transform="matrix(1,0,0,1,-839.5,-831)">
                    <g transform="matrix(1,0,0,1,-180.963,-32.773)">
                        <g>
                            <path d="M1282.26,1694.17L977.253,1694.17L977.253,1444.62L1010.53,1164.57L1004.98,1031.48L1013.3,953.838L885.751,865.109L747.112,859.564L589.063,931.656L478.151,942.747L350.603,906.701L311.784,862.336L278.511,831.836L347.831,845.7L425.469,890.064L516.97,890.064L594.608,878.973L644.519,865.109L694.429,829.063L605.7,790.244L450.424,776.38L394.968,773.607L297.92,723.697L278.511,687.651L289.602,640.513L333.967,651.605L336.739,698.742L370.013,712.606L425.469,726.47L500.334,729.243L572.426,732.015L675.019,748.652L694.429,776.38L763.748,732.015L683.338,687.651L625.109,648.832L616.791,590.603L580.537,538.136L495.012,473.291L455.969,435.327L530.834,468.601L612.539,501.866L647.291,565.648L663.928,634.968L727.702,671.014L760.976,693.196L772.067,626.65L733.248,512.965L727.702,460.282L684.608,385.417L647.291,332.734L569.653,268.96L605.7,268.96L666.701,282.824L688.883,329.961L716.611,349.371L902.388,582.285L874.66,488.01L813.659,368.78L813.659,266.187L816.431,224.596L891.297,144.185L880.205,224.596L855.25,296.688L846.932,374.326L874.66,421.463L894.069,463.055L910.706,526.829L955.071,579.512L1016.07,388.19L1079.85,282.824L1173.25,189.62L1208.65,193.879L1131.44,400.56L1115.89,449.191L1046.57,521.284L1096.51,645.628L1212.95,697.232L1254.53,743.107L1318.31,956.611L1279.49,1378.07L1282.26,1694.17Z" style="stroke:black;stroke-width:1px;"/>
                        </g>
                    </g>
                </g>
            </g>
            <g id="tree.svg3" serif:id="tree.svg" transform="matrix(-0.201032,0,0,0.297796,1547.51,810.249)">
                <g transform="matrix(1,0,0,1,-839.5,-831)">
                    <g transform="matrix(1,0,0,1,-180.963,-32.773)">
                        <g>
                            <path d="M1282.26,1694.17L977.253,1694.17L977.253,1444.62L1010.53,1164.57L1004.98,1031.48L1013.3,953.838L885.751,865.109L747.112,859.564L589.063,931.656L478.151,942.747L350.603,906.701L311.784,862.336L278.511,831.836L347.831,845.7L425.469,890.064L516.97,890.064L594.608,878.973L644.519,865.109L694.429,829.063L605.7,790.244L450.424,776.38L394.968,773.607L297.92,723.697L278.511,687.651L289.602,640.513L333.967,651.605L336.739,698.742L370.013,712.606L425.469,726.47L500.334,729.243L572.426,732.015L675.019,748.652L694.429,776.38L763.748,732.015L683.338,687.651L625.109,648.832L616.791,590.603L580.537,538.136L495.012,473.291L455.969,435.327L530.834,468.601L612.539,501.866L647.291,565.648L663.928,634.968L727.702,671.014L760.976,693.196L772.067,626.65L733.248,512.965L727.702,460.282L684.608,385.417L647.291,332.734L569.653,268.96L605.7,268.96L666.701,282.824L688.883,329.961L716.611,349.371L902.388,582.285L874.66,488.01L813.659,368.78L813.659,266.187L816.431,224.596L891.297,144.185L880.205,224.596L855.25,296.688L846.932,374.326L874.66,421.463L894.069,463.055L910.706,526.829L955.071,579.512L1016.07,388.19L1079.85,282.824L1173.25,189.62L1208.65,193.879L1131.44,400.56L1115.89,449.191L1046.57,521.284L1096.51,645.628L1212.95,697.232L1254.53,743.107L1318.31,956.611L1279.49,1378.07L1282.26,1694.17Z" style="stroke:black;stroke-width:1px;"/>
                        </g>
                    </g>
                </g>
            </g>
            <g id="tree.svg4" serif:id="tree.svg" transform="matrix(0.201032,0,0,0.297796,349.245,741.307)">
                <g transform="matrix(1,0,0,1,-839.5,-831)">
                    <g transform="matrix(1,0,0,1,-180.963,-32.773)">
                        <g>
                            <path d="M1282.26,1694.17L977.253,1694.17L977.253,1444.62L1010.53,1164.57L1004.98,1031.48L1013.3,953.838L885.751,865.109L747.112,859.564L589.063,931.656L478.151,942.747L350.603,906.701L311.784,862.336L278.511,831.836L347.831,845.7L425.469,890.064L516.97,890.064L594.608,878.973L644.519,865.109L694.429,829.063L605.7,790.244L450.424,776.38L394.968,773.607L297.92,723.697L278.511,687.651L289.602,640.513L333.967,651.605L336.739,698.742L370.013,712.606L425.469,726.47L500.334,729.243L572.426,732.015L675.019,748.652L694.429,776.38L763.748,732.015L683.338,687.651L625.109,648.832L616.791,590.603L580.537,538.136L495.012,473.291L455.969,435.327L530.834,468.601L612.539,501.866L647.291,565.648L663.928,634.968L727.702,671.014L760.976,693.196L772.067,626.65L733.248,512.965L727.702,460.282L684.608,385.417L647.291,332.734L569.653,268.96L605.7,268.96L666.701,282.824L688.883,329.961L716.611,349.371L902.388,582.285L874.66,488.01L813.659,368.78L813.659,266.187L816.431,224.596L891.297,144.185L880.205,224.596L855.25,296.688L846.932,374.326L874.66,421.463L894.069,463.055L910.706,526.829L955.071,579.512L1016.07,388.19L1079.85,282.824L1173.25,189.62L1208.65,193.879L1131.44,400.56L1115.89,449.191L1046.57,521.284L1096.51,645.628L1212.95,697.232L1254.53,743.107L1318.31,956.611L1279.49,1378.07L1282.26,1694.17Z" style="stroke:black;stroke-width:1px;"/>
                        </g>
                    </g>
                </g>
            </g>
            <g id="tree.svg5" serif:id="tree.svg" transform="matrix(-0.201032,0,0,0.297796,1084.04,725.331)">
                <g transform="matrix(1,0,0,1,-839.5,-831)">
                    <g transform="matrix(1,0,0,1,-180.963,-32.773)">
                        <g>
                            <path d="M1282.26,1694.17L977.253,1694.17L977.253,1444.62L1010.53,1164.57L1004.98,1031.48L1013.3,953.838L885.751,865.109L747.112,859.564L589.063,931.656L478.151,942.747L350.603,906.701L311.784,862.336L278.511,831.836L347.831,845.7L425.469,890.064L516.97,890.064L594.608,878.973L644.519,865.109L694.429,829.063L605.7,790.244L450.424,776.38L394.968,773.607L297.92,723.697L278.511,687.651L289.602,640.513L333.967,651.605L336.739,698.742L370.013,712.606L425.469,726.47L500.334,729.243L572.426,732.015L675.019,748.652L694.429,776.38L763.748,732.015L683.338,687.651L625.109,648.832L616.791,590.603L580.537,538.136L495.012,473.291L455.969,435.327L530.834,468.601L612.539,501.866L647.291,565.648L663.928,634.968L727.702,671.014L760.976,693.196L772.067,626.65L733.248,512.965L727.702,460.282L684.608,385.417L647.291,332.734L569.653,268.96L605.7,268.96L666.701,282.824L688.883,329.961L716.611,349.371L902.388,582.285L874.66,488.01L813.659,368.78L813.659,266.187L816.431,224.596L891.297,144.185L880.205,224.596L855.25,296.688L846.932,374.326L874.66,421.463L894.069,463.055L910.706,526.829L955.071,579.512L1016.07,388.19L1079.85,282.824L1173.25,189.62L1208.65,193.879L1131.44,400.56L1115.89,449.191L1046.57,521.284L1096.51,645.628L1212.95,697.232L1254.53,743.107L1318.31,956.611L1279.49,1378.07L1282.26,1694.17Z" style="stroke:black;stroke-width:1px;"/>
                        </g>
                    </g>
                </g>
            </g>
            <g id="tree.svg6" serif:id="tree.svg" transform="matrix(-0.201032,0,0,0.297796,661.245,787.469)">
                <g transform="matrix(1,0,0,1,-839.5,-831)">
                    <g transform="matrix(1,0,0,1,-180.963,-32.773)">
                        <g>
                            <path d="M1282.26,1694.17L977.253,1694.17L977.253,1444.62L1010.53,1164.57L1004.98,1031.48L1013.3,953.838L885.751,865.109L747.112,859.564L589.063,931.656L478.151,942.747L350.603,906.701L311.784,862.336L278.511,831.836L347.831,845.7L425.469,890.064L516.97,890.064L594.608,878.973L644.519,865.109L694.429,829.063L605.7,790.244L450.424,776.38L394.968,773.607L297.92,723.697L278.511,687.651L289.602,640.513L333.967,651.605L336.739,698.742L370.013,712.606L425.469,726.47L500.334,729.243L572.426,732.015L675.019,748.652L694.429,776.38L763.748,732.015L683.338,687.651L625.109,648.832L616.791,590.603L580.537,538.136L495.012,473.291L455.969,435.327L530.834,468.601L612.539,501.866L647.291,565.648L663.928,634.968L727.702,671.014L760.976,693.196L772.067,626.65L733.248,512.965L727.702,460.282L684.608,385.417L647.291,332.734L569.653,268.96L605.7,268.96L666.701,282.824L688.883,329.961L716.611,349.371L902.388,582.285L874.66,488.01L813.659,368.78L813.659,266.187L816.431,224.596L891.297,144.185L880.205,224.596L855.25,296.688L846.932,374.326L874.66,421.463L894.069,463.055L910.706,526.829L955.071,579.512L1016.07,388.19L1079.85,282.824L1173.25,189.62L1208.65,193.879L1131.44,400.56L1115.89,449.191L1046.57,521.284L1096.51,645.628L1212.95,697.232L1254.53,743.107L1318.31,956.611L1279.49,1378.07L1282.26,1694.17Z" style="stroke:black;stroke-width:1px;"/>
                        </g>
                    </g>
                </g>
            </g>
            <g id="tree.svg7" serif:id="tree.svg" transform="matrix(-0.0885761,0,0,0.131211,686.87,893.269)">
                <g transform="matrix(1,0,0,1,-839.5,-831)">
                    <g transform="matrix(1,0,0,1,-180.963,-32.773)">
                        <g>
                            <path d="M1282.26,1694.17L977.253,1694.17L977.253,1444.62L1010.53,1164.57L1004.98,1031.48L1013.3,953.838L885.751,865.109L747.112,859.564L589.063,931.656L478.151,942.747L350.603,906.701L311.784,862.336L278.511,831.836L347.831,845.7L425.469,890.064L516.97,890.064L594.608,878.973L644.519,865.109L694.429,829.063L605.7,790.244L450.424,776.38L394.968,773.607L297.92,723.697L278.511,687.651L289.602,640.513L333.967,651.605L336.739,698.742L370.013,712.606L425.469,726.47L500.334,729.243L572.426,732.015L675.019,748.652L694.429,776.38L763.748,732.015L683.338,687.651L625.109,648.832L616.791,590.603L580.537,538.136L495.012,473.291L455.969,435.327L530.834,468.601L612.539,501.866L647.291,565.648L663.928,634.968L727.702,671.014L760.976,693.196L772.067,626.65L733.248,512.965L727.702,460.282L684.608,385.417L647.291,332.734L569.653,268.96L605.7,268.96L666.701,282.824L688.883,329.961L716.611,349.371L902.388,582.285L874.66,488.01L813.659,368.78L813.659,266.187L816.431,224.596L891.297,144.185L880.205,224.596L855.25,296.688L846.932,374.326L874.66,421.463L894.069,463.055L910.706,526.829L955.071,579.512L1016.07,388.19L1079.85,282.824L1173.25,189.62L1208.65,193.879L1131.44,400.56L1115.89,449.191L1046.57,521.284L1096.51,645.628L1212.95,697.232L1254.53,743.107L1318.31,956.611L1279.49,1378.07L1282.26,1694.17Z" style="stroke:black;stroke-width:1px;"/>
                        </g>
                    </g>
                </g>
            </g>
        </g>
        <path d="M1920,924.612L1920,1080L0,1080L0,929.6C151.487,931.057 344.247,957.666 456.705,961.463C548.391,964.56 785.973,957.997 801.57,957.997C817.167,957.997 975.215,948.763 1061.52,949.332C1149.04,949.91 1237.39,961.028 1326.67,961.463C1445.09,962.041 1656.8,945.289 1770.31,942.401C1814.55,941.275 1871.62,928.226 1920,924.612Z"/>
    </g>
</svg>
